<svg width="20" height="24" fill="none" xmlns="http://www.w3.org/2000/svg"><path d="M18.167 6.167h-3.5V5a4.666 4.666 0 1 0-9.334 0v1.167h-3.5A1.167 1.167 0 0 0 .667 7.333v12.834a3.5 3.5 0 0 0 3.5 3.5h11.666a3.5 3.5 0 0 0 3.5-3.5V7.333a1.167 1.167 0 0 0-1.166-1.166ZM7.667 5a2.333 2.333 0 1 1 4.666 0v1.167H7.667V5ZM17 20.167a1.166 1.166 0 0 1-1.167 1.166H4.167A1.167 1.167 0 0 1 3 20.167V8.5h2.333v1.167a1.166 1.166 0 1 0 2.334 0V8.5h4.666v1.167a1.166 1.166 0 1 0 2.334 0V8.5H17v11.667Z" fill="#AE1332"/></svg>