<svg width="20" height="24" viewBox="0 0 20 24" fill="none" xmlns="http://www.w3.org/2000/svg">
<path d="M18.1666 6.16659H14.6666V4.99992C14.6666 3.76224 14.175 2.57526 13.2998 1.70009C12.4246 0.824917 11.2376 0.333252 9.99995 0.333252C8.76228 0.333252 7.57529 0.824917 6.70012 1.70009C5.82495 2.57526 5.33329 3.76224 5.33329 4.99992V6.16659H1.83329C1.52387 6.16659 1.22713 6.2895 1.00833 6.50829C0.789542 6.72709 0.666626 7.02383 0.666626 7.33325V20.1666C0.666626 21.0948 1.03537 21.9851 1.69175 22.6415C2.34813 23.2978 3.23837 23.6666 4.16662 23.6666H15.8333C16.7615 23.6666 17.6518 23.2978 18.3082 22.6415C18.9645 21.9851 19.3333 21.0948 19.3333 20.1666V7.33325C19.3333 7.02383 19.2104 6.72709 18.9916 6.50829C18.7728 6.2895 18.476 6.16659 18.1666 6.16659ZM7.66662 4.99992C7.66662 4.38108 7.91245 3.78759 8.35004 3.35C8.78762 2.91242 9.38112 2.66659 9.99995 2.66659C10.6188 2.66659 11.2123 2.91242 11.6499 3.35C12.0875 3.78759 12.3333 4.38108 12.3333 4.99992V6.16659H7.66662V4.99992ZM17 20.1666C17 20.476 16.877 20.7728 16.6582 20.9915C16.4395 21.2103 16.1427 21.3333 15.8333 21.3333H4.16662C3.8572 21.3333 3.56046 21.2103 3.34167 20.9915C3.12287 20.7728 2.99996 20.476 2.99996 20.1666V8.49992H5.33329V9.66659C5.33329 9.97601 5.45621 10.2728 5.675 10.4915C5.89379 10.7103 6.19054 10.8333 6.49996 10.8333C6.80938 10.8333 7.10612 10.7103 7.32491 10.4915C7.54371 10.2728 7.66662 9.97601 7.66662 9.66659V8.49992H12.3333V9.66659C12.3333 9.97601 12.4562 10.2728 12.675 10.4915C12.8938 10.7103 13.1905 10.8333 13.5 10.8333C13.8094 10.8333 14.1061 10.7103 14.3249 10.4915C14.5437 10.2728 14.6666 9.97601 14.6666 9.66659V8.49992H17V20.1666Z" fill="#AE1332"/>
</svg>
